<?xml version="1.0" encoding="utf-8"?>
<!-- Generator: Adobe Illustrator 23.0.1, SVG Export Plug-In . SVG Version: 6.00 Build 0)  -->
<svg version="1.1" id="Layer_1" xmlns="http://www.w3.org/2000/svg" x="0px" y="0px" viewBox="0 0 500 500" style="enable-background:new 0 0 500 500;" xml:space="preserve">
<path d="M500,229.2c0,13.9,0,27.8,0,41.7c-28.5-3.3-45.9,2.2-54.8,36.3c-18.5,71.2-66.8,119.8-138.1,138.2
	c-33.9,8.8-39.8,26-36.2,54.6c-13.9,0-27.8,0-41.7,0c3.8-29.5-4-46-37.5-54.9c-70.2-18.6-118.2-66.5-136.7-136.7
	C46,274.8,29.5,267.1,0,270.8c0-13.9,0-27.8,0-41.7c28.6,3.5,45.8-2.4,54.6-36.2c18.5-71.3,67-119.7,138.2-138.1
	c34.1-8.8,39.6-26.3,36.3-54.8c13.9,0,27.8,0,41.7,0c-3.6,28.6,1.9,45.9,36.1,54.8c71.3,18.5,119.8,67,138.3,138.3
	C454.1,227.3,471.4,232.8,500,229.2z M412,247.7c-1.4-90-74.7-161.1-164.5-159.7c-89.7,1.4-161.6,75.2-160,164.5
	c1.6,89.5,75.7,161.5,164.8,160C341.9,411.1,413.4,337.4,412,247.7z"/>
<path d="M340,248.3c1.1,47.1-39.5,90-87,92c-49,2-93.8-41.6-93.3-90.9c0.5-47.5,42.1-89,89.6-89.4
	C296.6,159.6,338.9,200.8,340,248.3z"/>
</svg>
