<?xml version="1.0" encoding="utf-8"?>
<!-- Generator: Adobe Illustrator 23.0.1, SVG Export Plug-In . SVG Version: 6.00 Build 0)  -->
<svg version="1.1" id="Capa_1" xmlns="http://www.w3.org/2000/svg" xmlns:xlink="http://www.w3.org/1999/xlink" x="0px" y="0px"
	 viewBox="0 0 1000 1067" style="enable-background:new 0 0 1000 1067;" xml:space="preserve">
<style type="text/css">
	.st0{fill:#FFFFFF;}
	.st1{clip-path:url(#SVGID_3_);}
	.st2{fill:#ECC19C;}
	.st3{fill:#1C5A7D;}
	.st4{fill:#7CA6BA;}
	.st5{fill:#D4DCE6;}
	.st6{fill:#1A1A1A;}
</style>
<g>
	<circle id="SVGID_1_" class="st0" cx="500" cy="500" r="500"/>
</g>
<g>
	<g>
		<defs>
			<circle id="SVGID_2_" cx="500" cy="500" r="500"/>
		</defs>
		<clipPath id="SVGID_3_">
			<use xlink:href="#SVGID_2_"  style="overflow:visible;"/>
		</clipPath>
		<g class="st1">
			<path class="st2" d="M790,1066.9L790,1066.9l-579.7,0.1v-0.1c0-32.7,5.4-64.3,15.5-93.6c1.8-5.3,3.8-10.5,5.9-15.7v-0.1
				c2.1-5.2,4.4-10.3,6.8-15.3c9.6-20.2,21.5-39,35.3-56.3c3.5-4.3,7.1-8.5,10.7-12.6c1.8-2.1,3.7-4.1,5.6-6.1s3.8-3.9,5.8-5.9
				c9.8-9.8,20.3-18.7,31.3-27c5.5-4.1,11.1-7.9,16.9-11.6c2.1-1.3,4.2-2.6,6.3-3.9c0.9-0.5,1.9-1.1,2.8-1.6
				c2.8-1.7,5.7-3.3,8.6-4.9c0.1-0.1,0.2-0.1,0.2-0.1c2.3-1.3,4.6-2.6,6.9-4c6.8-4.1,13.4-8.6,19.6-13.7c20.1-16,36.7-36.1,48.6-59
				c3.8-7.3,7.1-14.8,9.9-22.6c6.9-19.3,10.7-40.2,10.7-61.9l42.2,0.2h0.1l43.3,0.2c0,21.5,3.7,42.1,10.4,61.2
				c2.7,7.8,6,15.4,9.8,22.6c11.9,23,28.4,43.2,48.5,59.2c3.9,3.2,7.9,6.2,12.1,9c0.4,0.3,0.8,0.6,1.3,0.9c2,1.3,3.9,2.6,6,3.8
				c2.2,1.4,4.5,2.7,6.8,4c0.4,0.1,0.7,0.3,1,0.5c2.6,1.4,5.1,2.9,7.6,4.4c2.2,1.3,4.4,2.6,6.6,3.9c2.2,1.4,4.5,2.8,6.7,4.4
				c4.5,2.9,9,6.1,13.3,9.3c0,0.1,0.1,0.1,0.1,0.1h0.1c5.5,4.1,10.9,8.5,16.1,12.9c5.2,4.5,10.3,9.2,15.1,14
				C757.5,914.3,790,986.7,790,1066.9z"/>
			<path class="st3" d="M790,1066.9H210.3c0-32.7,5.4-64.3,15.5-93.6c1.8-5.3,3.8-10.5,5.9-15.7v-0.1c2.1-5.2,4.4-10.3,6.8-15.3
				c9.6-20.2,21.5-39,35.3-56.3c3.5-4.3,7.1-8.5,10.7-12.6c1.8-2.1,3.7-4.1,5.6-6.1s3.8-3.9,5.8-5.9c9.8-9.8,20.3-18.7,31.3-27
				c5.5-4.1,11.1-7.9,16.9-11.6c2.1-1.3,4.2-2.6,6.3-3.9c0.9-0.6,1.9-1.1,2.8-1.7c2.8-1.7,5.7-3.3,8.6-4.9c0.1-0.1,0.2-0.1,0.2-0.1
				V812c2.3-1.3,4.6-2.6,6.9-4c6.8-4.2,13.4-8.7,19.5-13.8c0.1,0.1,0.1,0.1,0.1,0.1c28.3,29,67.7,46.9,111.4,47h0.4
				c43.7,0,83.3-18,111.7-47l0.1-0.1c3.9,3.2,7.9,6.2,12.1,9c0.4,0.3,0.8,0.6,1.3,0.9c2,1.3,4,2.6,6,3.8c2.2,1.4,4.5,2.7,6.8,3.9
				c0.4,0.1,0.7,0.3,1,0.5c2.6,1.4,5.2,2.9,7.7,4.4c2.2,1.3,4.4,2.6,6.5,4c2.2,1.4,4.5,2.8,6.7,4.4c4.5,2.9,9,6.1,13.3,9.3h0.1
				c5.5,4.2,10.9,8.5,16.1,13c5.2,4.5,10.3,9.2,15.1,14C757.5,914.3,790,986.7,790,1066.9z"/>
			<g>
				<path class="st4" d="M647,817.1L647,817.1l-6,6.1c-37.5,38.2-87.5,59.2-140.9,59.2c-0.1,0-0.1,0-0.1,0
					c-53.9-0.2-103.8-21.2-141.1-59.3l-5.7-5.8l-0.1-0.1c2.8-1.7,5.7-3.3,8.6-4.9c0.1-0.1,0.2-0.1,0.2-0.1v-0.1
					c2.3-1.3,4.6-2.6,6.9-4c6.8-4.2,13.4-8.7,19.5-13.8c0.1,0.1,0.1,0.1,0.1,0.1c28.3,29,67.7,46.9,111.4,47h0.4
					c43.7,0,83.3-18,111.7-47l0.1-0.1c3.9,3.2,7.9,6.2,12.1,9c0.4,0.3,0.8,0.6,1.3,0.9c2,1.3,4,2.6,6,3.8c2.2,1.4,4.5,2.7,6.8,3.9
					c0.4,0.1,0.7,0.3,1,0.5C641.9,814,644.5,815.5,647,817.1z"/>
			</g>
			<g>
				<path class="st2" d="M722.7,340.7v133.4c0,2.4-0.1,4.8-0.1,7.2c-0.1,1.9-0.1,3.7-0.2,5.6c-0.1,1.9-0.2,3.7-0.3,5.5
					c-0.1,1.3-0.2,2.5-0.3,3.8c-0.1,0.8-0.1,1.5-0.2,2.2c-0.1,1.4-0.2,2.8-0.4,4.2c-0.1,1.3-0.2,2.6-0.4,3.9
					c-0.1,1.3-0.3,2.6-0.5,3.9c-0.5,3.9-1.1,7.9-1.9,11.7c-0.5,2.6-1,5.2-1.5,7.8c-0.1,0.1-0.1,0.2-0.1,0.3
					c-0.1,0.4-0.1,0.8-0.2,1.1c-0.1,0.1-0.1,0.2-0.1,0.3s0,0.2-0.1,0.3c-0.1,0.5-0.2,1.1-0.4,1.6c-0.1,0.7-0.3,1.3-0.4,2
					c-0.1,0.7-0.3,1.4-0.5,2c-0.2,1-0.4,2-0.7,2.9c-0.2,0.5-0.3,1.1-0.5,1.7c-0.1,0.5-0.3,1-0.4,1.4c-1.1,4.5-2.5,8.8-3.8,13.2
					c-0.7,2.1-1.3,4.1-2,6.2c-0.1,0.2-0.2,0.4-0.2,0.7c-0.7,1.9-1.3,3.7-2,5.6c-0.2,0.5-0.4,1.1-0.7,1.7c-0.7,1.7-1.3,3.5-2,5.2
					c-0.8,2.1-1.7,4.2-2.6,6.3c-0.8,1.9-1.6,3.7-2.4,5.6c-0.1,0.3-0.3,0.6-0.4,0.9c-0.9,2-1.8,3.9-2.7,5.8c-0.9,2-1.9,4-2.9,6.1
					c-2,4-4.1,8-6.2,11.9l-2.9,5.2c-8.4,14.5-17.8,28.1-27.9,40.7c-1.4,1.8-2.8,3.6-4.3,5.2c-2,2.5-4.1,4.9-6.2,7.2
					c-1.9,2.1-3.7,4.2-5.6,6.2c-5.2,5.6-10.6,11-16.1,16c-1.1,1.1-2.2,2.1-3.4,3.1c-1.9,1.7-3.7,3.3-5.6,4.9c-1.5,1.3-3,2.6-4.5,3.8
					c-3.9,3.2-7.9,6.3-11.9,9.2c-1.6,1.3-3.3,2.5-5,3.6c-2.7,2-5.5,3.8-8.3,5.6c-1.5,1-3.1,2-4.7,2.9c-5.1,3.2-10.3,6.1-15.4,8.6
					c-0.5,0.3-0.9,0.5-1.4,0.7c-1.4,0.7-2.7,1.4-4.1,2c-1.4,0.7-2.8,1.3-4.3,2c-1.8,0.8-3.6,1.6-5.4,2.3c-0.7,0.3-1.4,0.6-2.1,0.8
					c-2.1,0.9-4.3,1.7-6.4,2.4c-2.7,1-5.4,1.8-8.1,2.6c-1.9,0.5-3.8,1-5.6,1.5c-0.1,0.1-0.2,0.1-0.4,0.1c-1.9,0.4-3.7,0.9-5.6,1.2
					c-0.5,0.1-1,0.2-1.5,0.3c-1.5,0.3-3.1,0.5-4.6,0.7c-2.2,0.3-4.4,0.6-6.6,0.7c-0.8,0.1-1.5,0.2-2.2,0.2c-1.7,0.1-3.5,0.2-5.2,0.2
					H500c-1.7,0-3.4-0.1-5.1-0.2c-0.7,0-1.3-0.1-2-0.2c-1.5-0.1-3.1-0.2-4.8-0.4c-0.3,0-0.7-0.1-1-0.1c-2-0.3-4-0.6-6.1-1
					c-1.7-0.3-3.5-0.7-5.3-1.1c-9.3-2.1-19-5.4-28.7-9.7c-3.3-1.5-6.6-3-9.9-4.8c-5.1-2.5-10.2-5.4-15.2-8.5
					c-4.2-2.6-8.4-5.3-12.6-8.2c-2.1-1.5-4.2-2.9-6.2-4.5c-6.5-4.8-13-9.9-19.3-15.5c-1.7-1.6-3.5-3.2-5.2-4.8s-3.5-3.2-5.2-4.8
					c-4.3-4.1-8.4-8.4-12.5-12.8c-1.6-1.7-3.2-3.4-4.8-5.2c-4.4-4.9-8.6-10-12.7-15.3c-1.6-1.9-3.1-3.9-4.5-5.8
					c-5.5-7.3-10.8-15-15.7-22.9c-1.3-2.1-2.6-4.3-3.9-6.4c-1.5-2.6-3-5.2-4.5-7.8c-5.5-9.8-10.5-20.1-14.9-30.6
					c-0.7-1.5-1.3-3.1-1.9-4.6c-0.9-2-1.6-4-2.3-6c-1.1-2.9-2.1-5.8-3.1-8.7s-1.9-5.8-2.8-8.8c-0.9-2.8-1.7-5.7-2.5-8.6
					c-0.9-3.1-1.7-6.2-2.4-9.3c-0.1-0.3-0.2-0.7-0.2-1c-1-4.4-2-8.8-2.8-13.3c-1.1-5.9-2-11.9-2.6-18c-0.3-1.9-0.4-3.8-0.6-5.7
					c-0.2-2-0.4-4-0.5-6c-0.3-3.7-0.4-7.4-0.5-11.1c-0.1-2.4-0.1-4.8-0.1-7.2v-133c0-30.5,6.2-59.7,17.3-86.2
					c0.3-0.8,0.6-1.5,0.9-2.2c4.3-10,9.3-19.6,15.1-28.8c0.9-1.5,1.8-2.9,2.7-4.3c39.7-60.8,108.3-100.9,186.2-101h0.2
					c16.9,0,33.4,1.9,49.3,5.5c14.5,3.3,28.4,8,41.6,13.9c18,8.1,34.8,18.5,49.9,30.9c12.7,10.4,24.2,22.1,34.3,35
					c3.9,5,7.6,10.2,11.2,15.6c1,1.5,2,2.9,2.8,4.5c5.7,9.1,10.8,18.7,15.1,28.7l1,2.3c10.9,26,17.1,54.4,17.3,84.2
					C722.7,339.3,722.7,340,722.7,340.7z"/>
				<path class="st5" d="M722.7,474c0,2.4-0.1,4.8-0.1,7.2c-0.1,1.9-0.1,3.7-0.2,5.6c-0.1,1.9-0.2,3.7-0.3,5.5
					c-0.1,1.3-0.2,2.5-0.3,3.8c-0.1,0.8-0.1,1.5-0.2,2.2c-0.1,1.4-0.2,2.8-0.4,4.2c-0.1,1.3-0.3,2.6-0.4,3.9
					c-0.1,1.3-0.3,2.6-0.5,3.9c-0.5,3.9-1.1,7.9-1.9,11.7c-0.4,2.3-0.9,4.5-1.4,6.8c-0.1,0.5-0.2,0.9-0.3,1.4
					c-0.1,0.4-0.1,0.8-0.2,1.1c-0.1,0.1-0.1,0.2-0.1,0.3s0,0.2-0.1,0.3c0,0.1,0,0.1,0,0.1c-0.1,0.6-0.3,1.2-0.4,1.7
					c-0.1,0.6-0.3,1.2-0.4,1.7c-0.1,0.7-0.3,1.4-0.5,2c-0.2,1.1-0.5,2.1-0.8,3.2c-0.1,0.5-0.2,1-0.3,1.5s-0.3,1-0.4,1.4
					c-1.1,4.5-2.5,8.8-3.8,13.2c-0.7,2.1-1.3,4.1-2,6.2c-0.1,0.2-0.2,0.4-0.2,0.7c-0.7,1.9-1.3,3.7-2,5.6c-0.2,0.5-0.4,1.1-0.7,1.7
					c-0.7,1.7-1.3,3.5-2,5.2c-0.8,2.1-1.7,4.2-2.6,6.3c-0.8,1.9-1.6,3.7-2.4,5.6c-0.1,0.3-0.3,0.6-0.4,0.9c-0.9,2-1.8,3.9-2.7,5.8
					c-0.9,2-1.9,4-2.9,6.1c-2,4-4.1,8-6.2,11.9l-2.9,5.2c-8.4,14.5-17.8,28.1-27.9,40.7c-1.4,1.8-2.8,3.6-4.3,5.2
					c-2,2.5-4.1,4.9-6.2,7.2c-1.9,2.1-3.7,4.2-5.6,6.2c-5.2,5.6-10.6,11-16.1,16c-1.1,1.1-2.2,2.1-3.4,3.1c-1.9,1.7-3.7,3.3-5.6,4.9
					c-1.5,1.3-3,2.6-4.5,3.8c-3.9,3.2-7.9,6.3-11.9,9.2c-1.6,1.3-3.3,2.5-5,3.6c-2.7,2-5.5,3.8-8.3,5.6c-1.5,1-3.1,2-4.7,2.9
					c-5.1,3.2-10.3,6.1-15.4,8.6c-0.5,0.3-0.9,0.5-1.4,0.7c-1.4,0.7-2.7,1.4-4.1,2c-1.4,0.7-2.8,1.3-4.3,2c-1.8,0.8-3.6,1.6-5.4,2.3
					c-0.7,0.3-1.4,0.6-2.1,0.8c-2.1,0.9-4.3,1.7-6.4,2.4c-2.7,1-5.4,1.8-8.1,2.6c-1.9,0.5-3.8,1-5.6,1.5c-0.1,0.1-0.2,0.1-0.4,0.1
					c-1.9,0.4-3.7,0.9-5.6,1.2c-0.5,0.1-1,0.2-1.5,0.3c-1.5,0.3-3.1,0.5-4.6,0.7c-2.2,0.3-4.4,0.6-6.6,0.7c-0.8,0.1-1.5,0.2-2.2,0.2
					c-1.7,0.1-3.5,0.2-5.2,0.2H500c-1.7,0-3.4-0.1-5.1-0.2c-0.7,0-1.3-0.1-2-0.2c-1.5-0.1-3.1-0.2-4.8-0.4c-0.3,0-0.7-0.1-1-0.1
					c-2-0.3-4-0.6-6.1-1c-1.7-0.3-3.5-0.7-5.3-1.1c-9.3-2.1-19-5.4-28.7-9.7c-3.3-1.5-6.6-3-9.9-4.8c-5.1-2.5-10.2-5.4-15.2-8.5
					c-4.2-2.5-8.4-5.2-12.6-8.2c-2.1-1.5-4.2-2.9-6.2-4.5c-6.5-4.8-13-9.9-19.3-15.5c-1.7-1.6-3.5-3.2-5.2-4.8s-3.5-3.2-5.2-4.8
					c-4.3-4.1-8.4-8.4-12.5-12.8c-1.6-1.7-3.2-3.4-4.8-5.2c-4.4-4.9-8.6-10-12.7-15.3c-1.6-1.9-3.1-3.9-4.5-5.8
					c-5.5-7.3-10.8-15-15.7-22.9c-1.3-2.1-2.6-4.3-3.9-6.4c-1.5-2.6-3-5.2-4.5-7.8c-5.5-9.8-10.5-20.1-14.9-30.6
					c-0.7-1.5-1.3-3.1-1.9-4.6c-0.9-2-1.6-4-2.3-6c-1.1-2.9-2.1-5.8-3.1-8.7s-1.9-5.8-2.8-8.8c-0.9-2.8-1.7-5.7-2.5-8.6
					c-0.9-3.1-1.7-6.2-2.4-9.3c-0.1-0.3-0.2-0.7-0.2-1c-1-4.4-2-8.8-2.8-13.3c-1.1-5.9-2-11.9-2.6-18c-0.3-1.9-0.4-3.8-0.6-5.7
					c-0.2-2-0.4-4-0.5-6c-0.3-3.7-0.4-7.4-0.5-11.1c-0.1-2.4-0.1-4.8-0.1-7.2l35.5,69.8l61,26.6l72.2,6.5h0.1l53.5,4.9h0.3l50.1,4.5
					c0.1,0,0.1,0,0.1,0L662,596.1L722.7,474z"/>
				<g>
					<path class="st5" d="M500.4,509.1l-0.1,53.8v0.1l-0.1,18.9v14.8l-0.1,49.2v0.1l-0.1-0.1h-0.1l-0.1-0.1l-0.1-0.1L285.1,536.3
						c-0.1-0.3-0.2-0.7-0.2-1c-1-4.4-2-8.8-2.8-13.3c-1.1-5.9-2-11.9-2.6-18c-0.3-1.9-0.4-3.8-0.6-5.7c-0.2-2-0.4-4-0.5-6
						c-0.3-3.7-0.4-7.4-0.5-11.1c-0.1-2.4-0.1-4.8-0.1-7.2v-65.3c0,0.9,0.1,1.9,0.1,2.8c0,0.7,0.1,1.3,0.1,2
						c0.5,15.2,3.1,31.9,7.7,49c3.8,13.7,8.5,26.3,13.9,37.5v0.1c14.3,29.8,33.5,50,51.2,53.3c1.1,0.2,2.2,0.3,3.3,0.4
						c6.8,0.8,14,1.2,21.4,1.2c27.9,0,52.6-22.4,68.2-31.5c0.1-0.1,0.2-0.1,0.3-0.2c0.8-0.5,1.6-1,2.3-1.5c0.2-0.2,0.4-0.3,0.7-0.4
						c13.1-7.5,32-12.2,53.1-12.3H500.4L500.4,509.1z"/>
					<path class="st5" d="M722.7,408.7l-0.1,65.3c0,16.4-1.5,32.5-4.4,48c-1.1,6.2-2.5,12.4-4,18.5l-50.4,72.8l-163.6,32.4h-0.1
						l-0.1,0.1v-0.1l0-136.6h0.4c21.1,0.1,40.1,4.8,53.2,12.3c0.2,0.1,0.4,0.2,0.6,0.4c0.8,0.5,1.6,1,2.4,1.5
						c0.1,0.1,0.2,0.1,0.3,0.2c15.6,9.1,40.3,31.5,68.2,31.5c7.4,0,14.5-0.4,21.4-1.2c1.1-0.1,2.2-0.2,3.4-0.4
						c17.6-3.3,36.8-23.5,51.1-53.3V500c5.5-11.3,10.2-23.9,13.9-37.5c4.9-18,7.5-35.6,7.8-51.6
						C722.7,410.1,722.7,409.4,722.7,408.7z"/>
				</g>
				<ellipse class="st2" cx="500.2" cy="579.8" rx="54.5" ry="16.8"/>
				<path class="st6" d="M695.1,337.4c0-0.9-0.7-1.7-1.6-1.9c-7.8-1.2-43-6-80.8-6c-42.9,0-98.3,13.4-107.9,13.4h-8.6
					c-4.5,0-18.9-2.9-37.4-6c-21.2-3.6-47.7-7.4-70.5-7.4c-27.7,0-53.9,2.6-69.1,4.4c-5.6,0.7-9.6,1.3-11.7,1.6
					c-0.9,0.1-1.6,0.9-1.6,1.9l-0.4,23.1c0,0.8,0.5,1.5,1.2,1.9l2.6,0.9c3.9,1.5,3.6,71,24.3,88.4c12.3,10.2,23.3,16.1,69.5,16.1
					c26.7,0,43.6-7.2,59.5-28.7c11.5-15.5,21.7-52,21.7-52c2.9-14.5,13.5-16.2,15.8-16.4c0.1,0,0.1,0,0.1,0h0.2c0.1,0,0.2,0,0.2,0
					c0.4,0,13.1,0.2,16.3,16.4c0,0,10.2,36.6,21.7,52c16,21.5,32.8,28.7,59.5,28.7c46.2,0,57.2-5.8,69.5-16.1
					c20.7-17.4,20.4-86.9,24.3-88.4l2.6-0.9c0.7-0.3,1.2-1,1.2-1.9L695.1,337.4z M462.4,419.6c-6.8,16.1-24.3,36.8-49,38
					c-74,3.7-77.4-16.9-82.2-33.3s-6.1-30.8-4.2-47.1c1.9-16.4,6.1-26,13.5-30.8c3.2-2.1,6.7-4,15.6-5.4c8-1.1,20.3-1.9,40.8-1.9
					c11.9,0,23,0.9,33,2.5c26.3,4.3,44.2,13.2,44.2,22C474,369.7,472.4,395.9,462.4,419.6z M669.7,424.3
					c-4.8,16.4-8.2,37.1-82.2,33.3c-24.7-1.3-42.2-22-49-38c-10-23.8-11.5-49.9-11.5-56c0-12.1,33.7-24.5,77.1-24.5
					c43.3,0,50.3,3.2,56.3,7.3c7.4,4.8,11.6,14.4,13.5,30.8C675.8,393.6,674.5,407.9,669.7,424.3z"/>
				<g>
					<path class="st5" d="M723.2,254.4c-0.1,0-0.1,0.1-0.1,0.1H277.7c0-157.3,106-151,222.3-138c0.1,0,0.1,0,0.1,0
						c8.3,0.9,16.6,1.9,24.9,2.8c87,9.7,157.8-27.9,193.3-61.2C766.5,92.4,775.1,219.3,723.2,254.4z"/>
					<path class="st5" d="M355.3,245.2l-1.2,3.8c-0.6,1.9-1.2,3.7-1.9,5.5c-0.5,1.5-1,2.9-1.6,4.4c-10.2,27.3-25.7,52.4-44.6,74.8
						c-13.3,15.8-26.7,41.1-28.1,79.9c-0.1,2.2-0.2,4.5-0.2,6.8v-79.7c0-45.1,0-86.2,0-86.2l18.3-2.2l17.8-2.1l21-2.5L355.3,245.2z"
						/>
					<path class="st5" d="M723.8,254.5l-77.6-9.3l1.2,3.7c10,31.2,27,59.6,48.1,84.6c14.1,16.7,28.2,44.1,28.2,86.8
						C723.8,362,723.8,254.5,723.8,254.5z"/>
					<ellipse class="st5" cx="500" cy="245.2" rx="165.8" ry="31.4"/>
				</g>
			</g>
		</g>
	</g>
</g>
</svg>
