<?xml version="1.0" encoding="utf-8"?>
<!-- Generator: Adobe Illustrator 23.0.1, SVG Export Plug-In . SVG Version: 6.00 Build 0)  -->
<svg version="1.1" id="Layer_1" xmlns="http://www.w3.org/2000/svg" xmlns:xlink="http://www.w3.org/1999/xlink" x="0px" y="0px"
	 viewBox="0 0 1000 1000" style="enable-background:new 0 0 1000 1000;" xml:space="preserve">
<style type="text/css">
	.st0{fill:#FFFFFF;}
	.st1{fill:#D3DBE5;}
	.st2{fill:#1C5A7D;}
	.st3{fill:#EBC09B;}
	.st4{fill:#7CA5B9;}
	.st5{fill:#DAD8D9;}
	.st6{fill:#EBDDD2;}
	.st7{fill:#7796A3;}
	.st8{fill:#7695A2;}
	.st9{fill:#7897A5;}
	.st10{fill:#7497A6;}
	.st11{fill:#1A1A1A;}
</style>
<path class="st0" d="M500,1000c275.4,0,500-224.6,500-500S775.4,0,500,0S0,224.6,0,500S224.6,1000,500,1000z"/>
<title>Landlord 1</title>
<path class="st1" d="M277.1,416.1c0-54.8-0.4-109.6,0.2-164.5c0.3-22.7,2.3-45.3,9.5-67.2c12.5-37.8,38-61.2,76.7-70.2
	c14.9-3.5,30.1-5.2,45.4-5.2c15,0.1,30-0.3,44.9,1.1c15.2,1.4,30.3,3.2,45.4,4.8c22.5,2.4,44.9,5.6,67.5,4.1
	c41.6-2.8,80.5-14.5,116.3-36.2c11.7-6.9,22.7-15,32.9-24.1c2.1-1.9,3.4-1.6,5.5,0c7.9,6.2,13.5,14.1,18.3,22.7
	c9.9,17.8,15,37.1,17.4,57.3c1.1,9.1,2.3,18.1,1.8,27.3c-1.2,22.7-4.4,44.9-15.8,65.1c-4.3,7.4-9.7,13.9-16.2,19.4
	c-2.3,2-2.9,4-2.9,6.8c0.1,48.8,0.1,97.7,0,146.5c0,2.1,0.7,4.4-0.9,6.2c-0.9-0.8-1.4-1.9-1.4-3c-1.8-28.7-10.8-54.6-29.7-76.9
	c-17.1-19.9-30.8-42.5-40.5-66.8c-1.2-3-2.5-4.1-6-3c-20.4,6.7-41.5,9.5-62.7,12.1c-38.5,4.7-77.1,4.8-115.7,3.6
	c-37.6-1.2-75.2-4.3-111.5-15.3c-3.9-1.2-5,0.9-6.1,3.8c-9.3,23.5-22.4,45.3-38.8,64.5c-20.6,23.9-29.5,51.7-31.3,82.5
	c0.1,1.5-0.2,3-0.9,4.4C278.3,416.3,277.7,416.4,277.1,416.1C277.2,416.1,277.2,416.1,277.1,416.1z"/>
<path class="st1" d="M723,473.1c0.6,34-6.6,66.5-18.4,98.1c-8.4,22.6-19.5,44.1-33.1,64.1c-9.5,13.8-19.9,27-31.2,39.4
	c-18.6,20.4-40,38-63.6,52.4c-4.1,2.5-8.4,4.7-12.6,7.1c-1,1.4-2.3,2.4-3.9,3c-21.6,10.5-44.1,17.2-68.4,15.3
	c-14.9-1.2-29.1-5.3-42.8-11.4c-4.3-1.9-8.7-3.5-12.7-5.9c-0.2-1.8-1.8-2.3-3.1-3c-18.6-10.3-36-22.7-51.7-37
	c-32.6-29-58.9-64.5-77.3-104.1c-12.1-25.5-20.3-52.8-24.1-80.8c-1.6-12.3-3.1-24.7-2.9-37.1c1-5.1,0.4-10.2,0.4-15.3
	c0.2-12.1-0.2-24.2,0.2-36.3c3.2-0.8,2.4,2,2.6,3.3c1.1,9.9,2.9,19.8,5.3,29.5c7.5,28.8,18.1,56.1,38.5,78.7
	c9.7,10.8,21.2,18,36.2,18.7s30,0.5,43.9-6.6c7.8-4.1,15.4-8.7,22.7-13.7c8.8-5.8,17-12.4,26.9-16.3c17.5-7.1,36.4-10,55.3-8.4
	c8.7,0.7,17.2,1.7,25.6,4.1c10.6,3,20.6,7.8,29.6,14.1c10,6.9,20.1,13.7,30.9,19.4c14.7,7.8,30.2,8.1,46.2,7.2
	c23.7-1.3,36.5-17.4,48-35c16-24.5,25-51.8,29.5-80.6c0.4-2.4-0.4-5.8,3.4-6.6c0.8,12.6,0.1,25.3,0.4,37.9
	C722.6,469.1,722.1,471.1,723,473.1z"/>
<path class="st2" d="M648.3,815.9c45.1,26.9,80.2,63.4,105.9,109c1.5,2.7,1.3,4-1.5,5.7c-80.2,46.8-171.8,70.4-264.6,68.2
	c-71.6-1.9-139.9-18-204.5-49.1c-12.1-5.8-24-12.2-35.7-18.9c-2-1.2-3.5-2-1.8-4.9c25.9-46.1,61.2-83.2,107-109.9
	c3.2-0.2,4.7,2.3,6.4,4.2c11.7,12.5,25.2,23.4,40,32.1c54.1,32,120.1,36.4,178,12c23.9-10,45.4-24.9,63.2-43.7
	C642.6,818.2,644.4,815.1,648.3,815.9z"/>
<path class="st3" d="M436.3,735.1c3.5-1.2,6,1.4,8.6,2.6c13.9,6.7,28.8,11.1,44.1,13c15.5,1.8,30.7-0.2,45.6-4.9
	c10.1-3.2,19.7-7.7,29.5-11.7c11.6,22.8,27.9,42.8,48,58.7c-2.6,6.4-8.7,9.5-13.6,13.5c-22.1,17.9-47.4,28.7-75.5,33
	c-2.1,0.3-4.2,0.2-6.3,0.9c-1.1,0.3-2.2,0.4-3.4,0.4h-17c-3.2,0-6.4,0-9.6-0.1c-1.6-0.2-3.3-0.5-4.9-0.8c-1.6-0.2-3.1-0.1-4.7-0.4
	c-18.9-2.8-37.2-9.1-53.8-18.5c-12.7-6.9-24.3-15.7-34.3-26.2c-0.5-0.5-0.8-1.1-1-1.7C408.4,777,424.6,758,436.3,735.1z"/>
<path class="st4" d="M482,838.4l4.1,0.8c3.4,0.9,6.8,0.2,10.3,0.4c5.9-0.3,11.8,0.5,17.6-0.4l2.9-0.1c1.9-1.1,4.2,0.2,6.1-0.8
	c8.9-2.3,18-3.9,26.8-6.8c22.3-7.4,41.5-19.6,58.6-35.3l3.7-3.3c10.5,8,22.1,14.5,33.1,21.7c1,0.6,2.4,0,3,1.4
	c-3.6,1.1-5.5,4.3-7.9,6.7c-27.2,27.8-59.8,46.1-97.8,54c-59.3,12.3-113.6,0.4-162.4-35.8c-10-7.4-18.3-16.5-27.3-24.9
	c7.8-4.9,15.7-9.7,23.5-14.7c4-2.6,7.8-5.5,11.7-8.3c6.7,4.6,12,10.8,18.6,15.6c20.3,14.8,42.5,24.9,67.5,28.8c1,0.2,1.9,0.6,2.8,1
	C478.7,839,480.4,838.7,482,838.4z"/>
<path class="st5" d="M723,473.1c-1.6-1.5-0.9-3.4-0.9-5.1c0-11.2,0-22.4,0-33.6c0-1.7,0.6-3.7-0.9-5.2c-1.7-1.6-1.1-3.6-0.9-5.6
	c0.4-3.8,0.1-7.5,0.3-11.3c0.1-2-0.5-4.5,2.4-5.3c0,1,0.1,2.1,0.1,3.1C723.1,431.1,723.1,452.1,723,473.1z"/>
<path class="st6" d="M279,421.1c-1.4,1.6-0.8,3.5-0.8,5.3c0,13.8,0,27.6-0.1,41.5c0,1.8,0.6,3.7-0.9,5.2c0-19,0-38,0-57h0.9
	C280.4,417.4,280.7,419.1,279,421.1z"/>
<path class="st3" d="M279,421.1c0.3-1.7,0-3.5-0.9-5c0.5-29.8,7.4-57.7,26.4-81.4c11.6-14.4,22.5-29.2,31.7-45.3
	c5.1-9.1,9.6-18.6,13.3-28.4c1-2.7,2.1-3,4.8-2.1c20.9,6.8,42.6,9.7,64.3,12.3c38.4,4.6,77,4.6,115.5,3.5
	c33.1-0.9,66.2-4.2,98.6-11.9c4.7-1.1,9.5-2.2,13.8-4.3c3.8-1.9,4.7-0.3,5.9,2.8c6.7,17.6,16.1,33.9,26.7,49.5
	c7.9,11.5,17.8,21.5,25.2,33.4c10.2,16.2,16.4,34.7,18,53.8c0.3,3,1.3,5.9,0.9,8.9c-1.6,2.1-0.8,4.5-0.8,6.8c0,5.1-0.3,10.3-1,15.3
	c-4.8,34.8-15.3,67.4-36.2,96c-8.8,12.1-19,23.6-34.5,26.4c-22.2,4.1-44.1,2.7-63.8-10.3c-10.5-7-21.1-13.9-31.8-20.6
	c-9.7-6.1-20.6-9.2-31.8-11.2c-21-3.8-42.6-2.2-62.9,4.5c-12.6,4.1-22.9,12.1-33.7,19.2c-10.4,6.9-21,13.4-33,17.3
	c-11.6,3.8-23.3,2.5-35.1,2.2c-12.9-0.3-23.2-6.6-32.1-15.2c-7.4-7.4-13.9-15.7-19.1-24.8c-14-24.2-22.5-50.2-27-77.7
	C279.6,430.4,279.4,425.8,279,421.1z"/>
<path class="st3" d="M501,595c-14.6,0.7-29.2-1.3-43.1-5.9c-3.3-1.1-6.4-2.8-9.1-5c-4-3.1-4.1-7-0.6-10.7c5.8-6.1,13.7-7.6,21.2-9.1
	c22.9-4.6,45.8-4.5,68.5,1.7c4.7,1.1,9.1,3.1,13.1,5.9c5.1,3.7,5.5,7.6,0.8,11.9c-5.2,4.8-12,6.5-18.6,8
	C522.7,594.6,511.8,595.6,501,595z"/>
<path class="st7" d="M514.1,839.2c-5.9,2.1-12,0.4-18,0.9c-0.3-0.2-0.4-0.3-0.3-0.5s0.2-0.2,0.3-0.2L514.1,839.2z"/>
<path class="st8" d="M496.1,839.3v0.7c-3.3-0.4-6.8,1-9.9-0.9L496.1,839.3z"/>
<path class="st9" d="M523,838.2c-1.8,1.7-4,0.6-6.1,0.8C518.8,837.5,521,838.2,523,838.2z"/>
<path class="st10" d="M482,838.4c-1.7,1.1-3.3,1.2-4.9-0.2L482,838.4z"/>
<path class="st11" d="M382.4,328.1c32.6-0.8,63.7,4.3,94.5,10.5c19.7,4,38.7,1.8,57.9-2.1c49.8-10.1,99.8-10.8,150.1-3.9
	c12.9,1.8,9.7,0.6,10.8,12.4c0.3,3.3,0.2,6.6,0.3,10c0.1,2.9,0.1,5.4-3.2,7c-2.8,1.4-2.2,5-2.6,7.7c-1.8,12.5-3.2,25.1-5.1,37.6
	c-1.3,7.9-3.2,15.6-5.6,23.3c-5.5,18.2-18.2,28.4-36,32.2c-20.9,4.6-42.4,5.3-63.6,2.2c-22-3.4-36.6-17.3-46.7-36.3
	c-7.3-13.5-12-28.1-16.1-42.9c-2.8-10.1-9-16.5-16.3-16.5c-7.1,0-13.2,6.2-16.1,16.2c-3.7,12.8-7.8,25.5-13.5,37.5
	c-18.5,39-43.7,44.3-74,43.6c-11.3-0.3-22.7-0.4-33.8-2.5c-28.3-5.6-38.1-18.1-44.2-43c-4.2-17.2-5.7-34.8-8-52.3
	c-0.4-3.1-0.3-6.4-4.1-7.8c-1.4-0.5-1.4-2.2-1.4-3.5c0.1-6.7,0.3-13.3,0.4-20c0-3.6,2.7-3.8,5.1-4.1c14.1-1.5,28.1-3.1,42.2-4.2
	C363.3,328.5,373.2,327.7,382.4,328.1z"/>
<path class="st3" d="M392.7,338c18.8-0.5,38.5,1.2,57.6,7.1c6.9,2.1,13.5,4.8,19.1,9.4c3.1,2.5,5,5.6,4.7,9.9
	c-1.3,17.8-4.1,35.4-11.1,51.9c-8.5,20-22,35.7-44.5,38.9c-20.9,3-42.2,2.6-62.7-4c-12-3.8-19.5-11.8-23.1-24
	c-5.7-18.9-7.9-38-4.5-57.6c3.5-20.5,12.4-28.8,33.1-30.5C371.3,338.3,381.5,337.9,392.7,338z"/>
<path class="st3" d="M607.9,337.9c12.1,0,21.7,0.4,31.4,1.1c21.2,1.6,30.2,9.6,33.7,30.5c3.5,20.6,1.2,40.7-5.5,60.5
	c-4.6,13.6-14.9,19.9-27.9,23c-18.2,4.4-36.8,4.9-55.1,2.6c-23.2-2.9-37.4-18.4-46.3-38.8c-7-16.2-9.6-33.5-11-51
	c-0.5-6.7,2.9-10.6,8-13.8c9.8-6,20.7-8.8,31.9-10.9C580.6,338.6,594.2,337.5,607.9,337.9z"/>
</svg>
