<?xml version="1.0" encoding="utf-8"?>
<!-- Generator: Adobe Illustrator 23.0.1, SVG Export Plug-In . SVG Version: 6.00 Build 0)  -->
<svg version="1.1" xmlns="http://www.w3.org/2000/svg" xmlns:xlink="http://www.w3.org/1999/xlink" x="0px" y="0px"
	 viewBox="0 0 1000 1000" style="enable-background:new 0 0 1000 1000;" xml:space="preserve">
<style type="text/css">
	.st0{fill:#FFFFFF;}
	.st1{fill:#F05540;}
	.st2{fill:#F3705A;}
	.st3{fill:#FFD15C;}
	.st4{fill:#F7B64C;}
	.st5{fill:#415A6B;}
	.st6{fill:#344A5E;}
	.st7{fill:#8AD7F8;}
</style>
<g id="Others">
	<circle class="st0" cx="500" cy="500" r="500"/>
</g>
<g id="Capa_1">
	<rect x="688.9" y="212.5" class="st1" width="87.3" height="152.4"/>
	<rect x="655.6" y="134.7" class="st2" width="154" height="82.6"/>
	<path class="st3" d="M185.7,514.2V865H808V514.2C685.7,391.9,617.5,323.7,496.8,203l0,0C376.2,325.2,307.9,393.5,185.7,514.2z"/>
	<path class="st4" d="M809.6,514.2C687.3,391.9,619.1,323.7,498.4,203C436.5,263.3,388.9,311,341.2,358.6S246,453.8,185.7,514.2
		v71.4c122.2-122.2,190.5-190.5,311.2-311.2C619.1,396.7,687.3,464.9,808,585.6v9.5l0,0v-81L809.6,514.2L809.6,514.2z"/>
	<path class="st5" d="M441.3,865H253.9V680.9c0-52.4,42.9-93.7,93.7-93.7l0,0c52.4,0,93.7,42.9,93.7,93.7V865z"/>
	<rect x="496.8" y="587.2" class="st6" width="244.5" height="214.3"/>
	<g>
		<rect x="522.2" y="612.6" class="st7" width="84.1" height="163.5"/>
		<rect x="631.8" y="612.6" class="st7" width="84.1" height="163.5"/>
	</g>
	<path class="st2" d="M866.7,449.1L534.9,117.3c-19-19.1-52.4-19.1-71.4,0L133.3,449.1c-19.1,19-19.1,52.4,0,71.4
		c19,19,52.4,19,71.4,0L500,225.2l295.3,295.3c19,19,52.4,19,71.4,0C885.8,499.9,885.8,468.1,866.7,449.1z"/>
</g>
</svg>
