<?xml version="1.0" encoding="utf-8"?>
<!-- Generator: Adobe Illustrator 23.0.1, SVG Export Plug-In . SVG Version: 6.00 Build 0)  -->
<svg version="1.1" id="Layer_1" xmlns="http://www.w3.org/2000/svg" x="0px" y="0px" viewBox="0 0 1000 1000" style="enable-background:new 0 0 1000 1000;" xml:space="preserve">
<style type="text/css">
	.st0{fill:#FFFFFF;}
	.st1{fill:#EB8D00;}
	.st2{fill:#FDAE02;}
	.st3{fill:#FDCB02;}
	.st4{fill:#F3FFFB;}
	.st5{fill:#FFD27B;}
	.st6{fill:#8F4D24;}
	.st7{fill:#A8D32A;}
	.st8{fill:#8D9CA8;}
	.st9{fill:#AAB8C7;}
</style>
<g id="Others">
	<circle class="st0" cx="500" cy="500" r="500"/>
</g>
<g id="Buildings">
	<path class="st1" d="M726.7,829.5H510.6v-562H747v469.6L726.7,768V829.5z"/>
	<path class="st2" d="M548,181.4h-37.4l-30.9,246.8l30.9,393.9l37.4-5.2V181.4z"/>
	<path class="st3" d="M215.4,119.7v61.8h-35.2v635.5l199.2,23.6l131.2-18.4V119.7H215.4z"/>
	<g>
		<path class="st4" d="M288.3,268h43.4v61.7h-43.4V268z"/>
		<path class="st4" d="M396.3,268h43.4v61.7h-43.4V268z"/>
		<path class="st4" d="M288.3,391.5h43.4v61.7h-43.4V391.5z"/>
		<path class="st4" d="M396.3,391.5h43.4v61.7h-43.4V391.5z"/>
		<path class="st4" d="M288.3,515h43.4v61.7h-43.4V515z"/>
		<path class="st4" d="M396.3,515h43.4v61.7h-43.4V515z"/>
		<path class="st4" d="M288.3,638.5h43.4v61.7h-43.4V638.5z"/>
		<path class="st4" d="M396.3,638.5h43.4v61.7h-43.4V638.5z"/>
	</g>
	<path class="st5" d="M603.7,391.5h43.4v61.7h-43.4V391.5z"/>
	<path class="st5" d="M603.7,515h43.4v61.7h-43.4V515z"/>
	<path class="st6" d="M703.7,729.6h43.4v108.1h-43.4V729.6z"/>
	<path class="st7" d="M725.4,781.2c-52.3,0-94.8-42.5-94.8-94.8s42.5-94.8,94.8-94.8s94.8,42.5,94.8,94.8S777.7,781.2,725.4,781.2z"
		/>
	<path class="st8" d="M819.4,816.9H510.6l-15.4,28.2l15.4,15.2h308.7V816.9z"/>
	<path class="st9" d="M180.2,816.9h330.4v43.4H180.2V816.9z"/>
</g>
</svg>
