<?xml version="1.0" encoding="utf-8"?>
<!-- Generator: Adobe Illustrator 23.0.1, SVG Export Plug-In . SVG Version: 6.00 Build 0)  -->
<svg version="1.1" id="Layer_1" xmlns="http://www.w3.org/2000/svg" xmlns:xlink="http://www.w3.org/1999/xlink" x="0px" y="0px"
	 viewBox="0 0 1000 1000" style="enable-background:new 0 0 1000 1000;" xml:space="preserve">
<style type="text/css">
	.st0{fill:#FFFFFF;}
	.st1{fill:#666666;}
	.st2{fill:#FED198;}
	.st3{fill:#F0B97D;}
	.st4{fill:#FBB429;}
</style>
<path class="st0" d="M500,1000c275.4,0,500-224.6,500-500S775.4,0,500,0S0,224.6,0,500S224.6,1000,500,1000z"/>
<path class="st1" d="M333,589.8c-41.7-105.2-129.2-200.4-19-392.1c45.4-79,114.7-131.1,186.3-113.4c71.6-17.6,141,34.5,186.3,113.4
	c110.2,191.8,22.6,287-19.1,392.2l-167.3,0.4L333,589.8L333,589.8z"/>
<path class="st2" d="M218.6,754.3c-5.2,8.4-18.3,80.2-32.7,134.7c85.8,69.4,195.1,111,314.1,111s228.3-41.6,314.1-111
	c-14.4-54.4-27.5-126.2-32.7-134.7c-80.3-129.7-204.1-73.1-212.6-221.5c0,0-39.8,29.7-70.2,30c-30.4,0.3-67.5-28.1-67.5-28.1
	C422.7,682.9,298.8,624.7,218.6,754.3z"/>
<path class="st3" d="M571,553.7c-1-6.5-1.7-13.5-2.2-21c0,0-39.8,29.7-70.2,30c-30.4,0.3-67.5-28.1-67.5-28.1
	c-0.4,7.6-1.2,14.7-2.2,21.3c0.8,0.6,1.6,1.2,2.3,1.8v0.1c2.3,2,37.9,32.7,67.4,32.3c29.4,0.3,65-30.3,67.4-32.3v-0.1
	C567.7,556.5,569.3,555.1,571,553.7L571,553.7z"/>
<path class="st2" d="M431.2,534.8c2.3,1.8,37.9,28.3,67.4,28c29.4,0.3,65-26.3,67.4-28c44.4-25.9,80.9-102.3,72.7-185.1
	c-6.7-67.8-80.1,31.6-131.2-108.3c-72.3,151.5-141,61.9-148.9,119.3C349.9,423.9,385.4,503.5,431.2,534.8L431.2,534.8L431.2,534.8z"
	/>
<path class="st4" d="M372.9,640.8c-43.8,23.4-123.8,24.1-154.3,73.1c-5.3,8.5-18.6,113-33.3,174.6C271.2,958.2,380.7,1000,500,1000
	s228.8-41.8,314.7-111.5c-14.7-61.6-29.6-165.3-33.3-174.6c-20.2-51-113.9-53.2-157.7-76.7C555.6,884.4,454.1,901.2,372.9,640.8
	L372.9,640.8L372.9,640.8L372.9,640.8z"/>
<g>
	<path class="st0" d="M402.1,616.3c-2.8,76.9,10.2,185.8,96.5,213.7c-81.2,3.4-133.9-113.6-194-144.3L402.1,616.3L402.1,616.3
		L402.1,616.3z"/>
	<path class="st0" d="M599.9,616.3c3,76.9-10.7,185.8-101.3,213.7c85.3,3.4,140.7-113.6,203.7-144.3L599.9,616.3L599.9,616.3z"/>
</g>
</svg>
